<?xml version="1.0" standalone="no"?>
<!DOCTYPE svg PUBLIC "-//W3C//DTD SVG 20010904//EN"
 "http://www.w3.org/TR/2001/REC-SVG-20010904/DTD/svg10.dtd">
<svg version="1.0" xmlns="http://www.w3.org/2000/svg"
 width="900.000000pt" height="900.000000pt" viewBox="0 0 900.000000 900.000000"
 preserveAspectRatio="xMidYMid meet">
<metadata>
Created by potrace 1.11, written by Peter Selinger 2001-2013
</metadata>
<g transform="translate(0.000000,900.000000) scale(0.100000,-0.100000)"
fill="#000000" stroke="none">
<path d="M4251 8440 c-830 -58 -1572 -348 -2231 -874 -156 -125 -455 -423
-582 -581 -477 -594 -757 -1256 -855 -2020 -25 -201 -25 -722 0 -920 62 -477
171 -847 371 -1260 260 -536 621 -988 1091 -1364 847 -679 1938 -975 3020
-820 1090 156 2074 773 2698 1690 373 548 599 1176 662 1837 17 180 20 545 4
712 -68 756 -332 1442 -788 2045 -287 380 -684 739 -1096 990 -136 83 -442
236 -590 294 -332 131 -690 219 -1037 256 -183 19 -506 26 -667 15z m659 -375
c1204 -140 2255 -878 2801 -1967 504 -1005 503 -2191 -2 -3199 -369 -738 -992
-1335 -1743 -1673 -145 -64 -316 -129 -323 -122 -3 3 11 126 31 273 61 450
128 1104 157 1528 7 99 15 183 18 187 3 4 112 12 241 18 928 43 1447 167 1499
357 33 119 -86 228 -294 269 -107 21 -418 24 -585 5 -249 -28 -727 -110 -857
-147 -14 -4 -23 -2 -23 4 0 30 98 495 145 690 91 371 127 469 214 580 56 70
55 98 -5 162 -60 65 -144 117 -459 289 -452 247 -562 334 -651 516 -43 88 -73
179 -63 190 3 2 62 -11 131 -30 729 -200 1355 -303 1608 -266 115 16 151 30
192 71 75 75 47 125 -157 279 -154 117 -563 365 -881 535 l-70 38 -11 64 c-20
115 -81 201 -185 256 -37 20 -58 23 -143 23 -103 0 -115 -4 -211 -65 -18 -11
-34 -9 -115 13 -149 42 -254 58 -402 64 l-137 6 -42 79 c-23 43 -54 93 -68
109 l-25 31 -63 -12 c-63 -13 -64 -13 -90 13 l-25 26 27 40 c31 44 95 81 142
81 47 0 145 -53 211 -114 58 -53 83 -68 83 -46 0 15 -135 124 -187 150 -105
53 -204 32 -266 -56 l-31 -45 -16 49 c-41 126 -104 173 -245 183 -51 4 -115
16 -147 28 -206 76 -508 65 -773 -29 -180 -64 -402 -192 -579 -333 -58 -46
-73 -54 -89 -46 -27 15 -88 -28 -132 -93 -36 -55 -43 -86 -23 -106 9 -9 7 -17
-9 -34 -74 -81 -190 -299 -242 -456 -65 -194 -75 -271 -76 -547 0 -240 1 -252
23 -300 13 -27 34 -61 47 -75 12 -14 42 -79 65 -145 53 -152 127 -310 168
-357 32 -35 42 -81 21 -93 -6 -4 -8 -26 -4 -59 6 -48 -4 -86 -125 -471 -73
-231 -143 -443 -155 -471 -13 -29 -26 -66 -30 -83 -6 -30 -5 -32 42 -53 26
-11 70 -27 98 -34 67 -18 217 -17 289 1 164 43 347 188 452 357 48 77 160 294
191 368 8 21 13 9 32 -90 61 -316 91 -477 91 -491 0 -11 -12 -19 -36 -24 -64
-12 -214 -64 -302 -105 -282 -133 -465 -336 -532 -595 -21 -77 -41 -325 -27
-325 4 0 38 20 75 44 173 111 449 253 632 326 92 37 261 90 286 90 12 0 56
-241 45 -251 -3 -4 -57 -21 -120 -39 -439 -123 -659 -254 -636 -377 10 -57 41
-80 121 -88 79 -7 326 8 554 35 85 10 156 17 158 15 13 -13 126 -890 162
-1255 11 -113 22 -228 25 -257 l5 -51 -73 20 c-854 241 -1626 839 -2090 1619
-702 1179 -668 2653 88 3799 626 949 1645 1539 2790 1614 117 7 482 -4 615
-19z m47 -1100 c87 -14 272 -61 282 -71 3 -3 0 -13 -7 -22 -38 -52 -56 -110
-60 -189 -4 -72 -1 -88 24 -142 35 -78 112 -152 186 -177 185 -63 375 37 432
228 l11 37 190 -105 c579 -322 945 -574 945 -652 0 -46 -63 -91 -158 -111 -75
-16 -294 -14 -447 4 -277 32 -723 125 -1134 235 -123 33 -228 60 -232 60 -31
0 25 -181 90 -289 94 -159 210 -244 686 -501 237 -128 365 -211 410 -263 57
-66 54 -67 -112 -67 -715 0 -1162 -299 -1308 -874 -28 -111 -41 -201 -55 -396
-20 -267 -99 -842 -120 -863 -18 -19 -947 -159 -1365 -206 -412 -46 -578 -49
-615 -9 -91 97 71 227 435 347 324 107 982 250 1498 327 64 10 117 21 117 26
0 14 -44 9 -313 -36 -378 -64 -903 -172 -979 -201 -13 -5 -18 7 -28 67 -55
336 -242 1360 -255 1396 -3 7 11 58 30 113 50 145 100 355 120 499 26 194 17
175 140 280 253 215 594 572 802 839 59 75 111 141 117 148 8 9 11 -6 12 -56
2 -124 75 -234 193 -290 46 -21 70 -26 136 -26 136 0 238 63 297 183 29 58 33
76 33 147 0 98 -30 170 -97 236 -100 98 -235 120 -382 63 -14 -5 -10 6 19 52
21 32 52 75 70 95 18 20 36 52 40 70 4 19 14 43 21 54 8 11 14 30 14 44 l0 24
114 -7 c63 -4 154 -13 203 -21z m669 -15 c105 -51 165 -141 172 -261 4 -67 1
-83 -23 -138 -32 -70 -94 -133 -161 -162 -61 -27 -177 -27 -238 -1 -179 80
-242 302 -130 463 33 47 100 96 158 115 59 20 163 12 222 -16z m-853 -323
c104 -62 161 -157 161 -272 0 -122 -63 -223 -177 -282 -108 -56 -259 -29 -351
63 -91 91 -117 239 -61 342 39 72 80 118 131 148 81 48 217 48 297 1z m1353
-1774 c-73 -148 -164 -478 -263 -963 l-55 -274 10 -236 c9 -213 7 -264 -14
-537 -29 -378 -55 -651 -95 -1003 -39 -344 -94 -739 -106 -750 -24 -25 -381
-109 -588 -140 -172 -25 -536 -46 -629 -36 l-69 8 6 216 c8 309 34 469 201
1258 113 532 161 837 196 1256 29 342 60 478 147 652 51 103 100 172 181 258
222 233 553 352 990 357 l122 1 -34 -67z m-2946 -1007 c0 -3 20 -118 45 -257
25 -139 44 -254 42 -256 -2 -1 -50 -17 -108 -34 -202 -60 -479 -188 -726 -334
-69 -41 -129 -75 -134 -75 -11 0 -4 122 12 210 48 264 212 471 487 613 130 67
382 155 382 133z m4164 -145 c99 -26 158 -61 196 -113 174 -239 -379 -409
-1490 -457 -107 -5 -196 -8 -197 -7 -3 2 -22 440 -20 443 6 6 468 95 587 113
266 41 378 49 615 46 198 -3 241 -6 309 -25z m-2764 -924 c0 -9 -76 -374 -130
-627 -111 -517 -150 -792 -153 -1070 -2 -185 17 -166 -148 -150 -178 18 -521
80 -541 99 -4 3 -14 85 -23 181 -32 349 -120 1064 -164 1330 -5 30 -8 56 -7
58 2 1 158 25 347 52 189 27 448 67 574 89 127 21 233 39 238 40 4 0 7 0 7 -2z"/>
<path d="M5317 7480 c-65 -41 -133 -140 -173 -252 -10 -29 -10 -38 -1 -38 7 0
23 27 35 60 35 89 98 178 151 211 53 34 96 37 149 10 41 -21 128 -108 157
-158 19 -33 35 -43 35 -22 0 16 -59 98 -101 140 -84 84 -171 101 -252 49z"/>
<path d="M5434 6781 c-44 -27 -64 -59 -64 -104 0 -76 52 -130 125 -130 133 0
174 177 55 238 -39 20 -79 19 -116 -4z"/>
<path d="M4594 6470 c-41 -16 -74 -68 -74 -117 0 -39 5 -50 39 -84 32 -33 45
-39 80 -39 82 0 131 49 131 131 0 35 -6 48 -39 80 -32 32 -45 39 -77 38 -22 0
-48 -4 -60 -9z"/>
</g>
</svg>
